HIERARCHY
ROOT newVegas:Hips
{
	OFFSET 0.000000 96.479958 0.000000
	CHANNELS 6 Xposition Yposition Zposition Xrotation Yrotation Zrotation
	JOINT newVegas:Pelvis
	{
		OFFSET 0.000000 0.000000 0.000000
		CHANNELS 3 Xrotation Yrotation Zrotation
		JOINT newVegas:LeftUpLeg
		{
			OFFSET 18.735201 -5.666702 -4.541200
			CHANNELS 3 Xrotation Yrotation Zrotation
			JOINT newVegas:LeftLeg
			{
				OFFSET -0.021200 -31.938179 0.493100
				CHANNELS 3 Xrotation Yrotation Zrotation
				JOINT newVegas:LeftFoot
				{
					OFFSET 0.021200 -31.938179 -4.336299
					CHANNELS 3 Xrotation Yrotation Zrotation
					JOINT newVegas:LeftToeBase
					{
						OFFSET 0.943001 -26.722000 15.023500
						CHANNELS 3 Xrotation Yrotation Zrotation
						End Site
						{
							OFFSET 0.000000 30.670183 0.000000
						}
					}
				}
				JOINT newVegas:Left_PantLeg
				{
					OFFSET 0.663870 -9.044666 -1.108900
					CHANNELS 3 Xrotation Yrotation Zrotation
					End Site
					{
						OFFSET 1.415995 20.635357 0.000000
					}
				}
			}
		}
		JOINT newVegas:RightUpLeg
		{
			OFFSET -18.735201 -5.666702 -4.541200
			CHANNELS 3 Xrotation Yrotation Zrotation
			JOINT newVegas:RightLeg
			{
				OFFSET 0.018946 -31.938133 0.493100
				CHANNELS 3 Xrotation Yrotation Zrotation
				JOINT newVegas:RightFoot
				{
					OFFSET -0.018946 -31.938126 -4.336299
					CHANNELS 3 Xrotation Yrotation Zrotation
					JOINT newVegas:RightToeBase
					{
						OFFSET -0.943001 -26.722004 15.023500
						CHANNELS 3 Xrotation Yrotation Zrotation
						End Site
						{
							OFFSET 0.000000 30.670187 0.000000
						}
					}
				}
				JOINT newVegas:Right_PantLeg
				{
					OFFSET -0.661674 -9.044716 -1.108900
					CHANNELS 3 Xrotation Yrotation Zrotation
					End Site
					{
						OFFSET -1.415958 20.635269 0.000000
					}
				}
			}
		}
	}
	JOINT newVegas:Spine
	{
		OFFSET 0.000000 10.199997 -0.299500
		CHANNELS 3 Xrotation Yrotation Zrotation
		JOINT newVegas:Spine1
		{
			OFFSET 0.000000 11.900002 -1.516600
			CHANNELS 3 Xrotation Yrotation Zrotation
			JOINT newVegas:Spine2
			{
				OFFSET 0.000000 13.600006 -2.842500
				CHANNELS 3 Xrotation Yrotation Zrotation
				JOINT newVegas:Neck
				{
					OFFSET 0.000000 9.624100 -2.890100
					CHANNELS 3 Xrotation Yrotation Zrotation
					JOINT newVegas:Head
					{
						OFFSET 0.000000 14.068802 -1.351900
						CHANNELS 3 Xrotation Yrotation Zrotation
						JOINT newVegas:Hair_Back
						{
							OFFSET 0.000000 3.231903 -17.524799
							CHANNELS 3 Xrotation Yrotation Zrotation
							End Site
							{
								OFFSET 0.000000 19.849884 0.000000
							}
						}
						JOINT newVegas:Hair_Front
						{
							OFFSET 0.000000 31.260406 4.573800
							CHANNELS 3 Xrotation Yrotation Zrotation
							JOINT newVegas:Hair_Front1
							{
								OFFSET 0.000000 2.284103 11.993300
								CHANNELS 3 Xrotation Yrotation Zrotation
								JOINT newVegas:Hair_Front2
								{
									OFFSET 0.000000 2.284103 11.993300
									CHANNELS 3 Xrotation Yrotation Zrotation
									End Site
									{
										OFFSET 0.000000 12.208862 0.000000
									}
								}
							}
						}
						JOINT newVegas:Jowel
						{
							OFFSET 0.000000 -7.458206 6.864100
							CHANNELS 3 Xrotation Yrotation Zrotation
							End Site
							{
								OFFSET 0.000000 19.849884 0.000000
							}
						}
					}
				}
				JOINT newVegas:LeftShoulder
				{
					OFFSET 15.263000 10.923401 -0.547700
					CHANNELS 3 Xrotation Yrotation Zrotation
					JOINT newVegas:LeftArm
					{
						OFFSET 25.438599 -2.830597 -13.032500
						CHANNELS 3 Xrotation Yrotation Zrotation
						JOINT newVegas:LeftForeArm
						{
							OFFSET 29.960503 0.000000 0.000000
							CHANNELS 3 Xrotation Yrotation Zrotation
							JOINT newVegas:LeftHand
							{
								OFFSET 27.849251 0.000000 0.000000
								CHANNELS 3 Xrotation Yrotation Zrotation
								JOINT newVegas:LeftHandThumb1
								{
									OFFSET 4.487587 -3.305161 6.305391
									CHANNELS 3 Xrotation Yrotation Zrotation
									JOINT newVegas:LeftHandThumb2
									{
										OFFSET 5.480453 -3.164139 3.164143
										CHANNELS 3 Xrotation Yrotation Zrotation
										JOINT newVegas:LeftHandThumb3
										{
											OFFSET 5.159721 -2.978973 2.978967
											CHANNELS 3 Xrotation Yrotation Zrotation
											End Site
											{
												OFFSET 2.494507 5.926697 1.738678
											}
										}
									}
								}
								JOINT newVegas:LeftHandIndex1
								{
									OFFSET 18.578728 -0.527832 5.208049
									CHANNELS 3 Xrotation Yrotation Zrotation
									JOINT newVegas:LeftHandIndex2
									{
										OFFSET 3.192009 0.000000 0.000000
										CHANNELS 3 Xrotation Yrotation Zrotation
										JOINT newVegas:LeftHandIndex3
										{
											OFFSET 3.835129 0.000000 0.000000
											CHANNELS 3 Xrotation Yrotation Zrotation
											End Site
											{
												OFFSET -0.034599 3.816971 0.371180
											}
										}
									}
								}
								JOINT newVegas:LeftHandMiddle1
								{
									OFFSET 18.476105 0.000000 0.000000
									CHANNELS 3 Xrotation Yrotation Zrotation
									JOINT newVegas:LeftHandMiddle2
									{
										OFFSET 3.324875 0.000000 0.000000
										CHANNELS 3 Xrotation Yrotation Zrotation
										JOINT newVegas:LeftHandMiddle3
										{
											OFFSET 4.596550 0.000000 0.000000
											CHANNELS 3 Xrotation Yrotation Zrotation
											End Site
											{
												OFFSET 0.057701 4.578827 0.399218
											}
										}
									}
								}
								JOINT newVegas:LeftHandRing1
								{
									OFFSET 17.732719 0.121887 -4.201567
									CHANNELS 3 Xrotation Yrotation Zrotation
									JOINT newVegas:LeftHandRing2
									{
										OFFSET 2.733170 0.000000 0.000000
										CHANNELS 3 Xrotation Yrotation Zrotation
										JOINT newVegas:LeftHandRing3
										{
											OFFSET 3.178268 0.000000 0.000000
											CHANNELS 3 Xrotation Yrotation Zrotation
											End Site
											{
												OFFSET 0.119102 3.170624 0.185394
											}
										}
									}
								}
								JOINT newVegas:LeftHandPinky1
								{
									OFFSET 15.989624 -0.606689 -7.535461
									CHANNELS 3 Xrotation Yrotation Zrotation
									JOINT newVegas:LeftHandPinky2
									{
										OFFSET 2.538986 0.000000 0.000000
										CHANNELS 3 Xrotation Yrotation Zrotation
										JOINT newVegas:LeftHandPinky3
										{
											OFFSET 2.593102 0.000000 0.000000
											CHANNELS 3 Xrotation Yrotation Zrotation
											End Site
											{
												OFFSET -0.150902 2.584198 0.152708
											}
										}
									}
								}
							}
							JOINT newVegas:Left_Sleeve
							{
								OFFSET 0.267448 -0.649796 0.577675
								CHANNELS 3 Xrotation Yrotation Zrotation
								End Site
								{
									OFFSET 0.000000 15.991241 0.000000
								}
							}
							JOINT newVegas:Left_CapeC
							{
								OFFSET 15.715958 -8.608795 -6.935905
								CHANNELS 3 Xrotation Yrotation Zrotation
								JOINT newVegas:Left_CapeC1
								{
									OFFSET 0.000000 -8.688499 0.000000
									CHANNELS 3 Xrotation Yrotation Zrotation
									End Site
									{
										OFFSET 0.000000 8.688499 0.000000
									}
								}
							}
						}
						JOINT newVegas:Left_CapeB
						{
							OFFSET 26.118385 -8.608795 -7.079235
							CHANNELS 3 Xrotation Yrotation Zrotation
							JOINT newVegas:Left_CapeB1
							{
								OFFSET 0.000000 -8.688499 0.000000
								CHANNELS 3 Xrotation Yrotation Zrotation
								End Site
								{
									OFFSET 0.000000 8.688499 0.000000
								}
							}
						}
						JOINT newVegas:Left_CapeA
						{
							OFFSET 5.115639 -8.608795 -10.395809
							CHANNELS 3 Xrotation Yrotation Zrotation
							JOINT newVegas:Left_CapeA1
							{
								OFFSET 0.000000 -8.688499 0.000000
								CHANNELS 3 Xrotation Yrotation Zrotation
								End Site
								{
									OFFSET 0.000000 8.688499 0.000000
								}
							}
						}
					}
				}
				JOINT newVegas:RightShoulder
				{
					OFFSET -15.263000 10.923401 -0.547700
					CHANNELS 3 Xrotation Yrotation Zrotation
					JOINT newVegas:RightArm
					{
						OFFSET -25.438599 -2.830597 -13.032500
						CHANNELS 3 Xrotation Yrotation Zrotation
						JOINT newVegas:RightForeArm
						{
							OFFSET -29.960503 0.000000 0.000000
							CHANNELS 3 Xrotation Yrotation Zrotation
							JOINT newVegas:RightHand
							{
								OFFSET -27.849251 0.000000 0.000000
								CHANNELS 3 Xrotation Yrotation Zrotation
								JOINT newVegas:RightHandThumb1
								{
									OFFSET -4.487587 -3.305161 6.305391
									CHANNELS 3 Xrotation Yrotation Zrotation
									JOINT newVegas:RightHandThumb2
									{
										OFFSET -5.480453 -3.164139 3.164143
										CHANNELS 3 Xrotation Yrotation Zrotation
										JOINT newVegas:RightHandThumb3
										{
											OFFSET -5.159721 -2.978973 2.978967
											CHANNELS 3 Xrotation Yrotation Zrotation
											End Site
											{
												OFFSET -2.494507 5.926697 1.738678
											}
										}
									}
								}
								JOINT newVegas:RightHandIndex1
								{
									OFFSET -18.578728 -0.527832 5.208049
									CHANNELS 3 Xrotation Yrotation Zrotation
									JOINT newVegas:RightHandIndex2
									{
										OFFSET -3.192009 0.000000 0.000000
										CHANNELS 3 Xrotation Yrotation Zrotation
										JOINT newVegas:RightHandIndex3
										{
											OFFSET -3.835129 0.000000 0.000000
											CHANNELS 3 Xrotation Yrotation Zrotation
											End Site
											{
												OFFSET 0.034599 3.816971 0.371180
											}
										}
									}
								}
								JOINT newVegas:RightHandMiddle1
								{
									OFFSET -18.476105 0.000000 0.000000
									CHANNELS 3 Xrotation Yrotation Zrotation
									JOINT newVegas:RightHandMiddle2
									{
										OFFSET -3.324875 0.000000 0.000000
										CHANNELS 3 Xrotation Yrotation Zrotation
										JOINT newVegas:RightHandMiddle3
										{
											OFFSET -4.596550 0.000000 0.000000
											CHANNELS 3 Xrotation Yrotation Zrotation
											End Site
											{
												OFFSET -0.057701 4.578827 0.399218
											}
										}
									}
								}
								JOINT newVegas:RightHandRing1
								{
									OFFSET -17.732719 0.121887 -4.201567
									CHANNELS 3 Xrotation Yrotation Zrotation
									JOINT newVegas:RightHandRing2
									{
										OFFSET -2.733170 0.000000 0.000000
										CHANNELS 3 Xrotation Yrotation Zrotation
										JOINT newVegas:RightHandRing3
										{
											OFFSET -3.178268 0.000000 0.000000
											CHANNELS 3 Xrotation Yrotation Zrotation
											End Site
											{
												OFFSET -0.119102 3.170624 0.185394
											}
										}
									}
								}
								JOINT newVegas:RightHandPinky1
								{
									OFFSET -15.989624 -0.606689 -7.535461
									CHANNELS 3 Xrotation Yrotation Zrotation
									JOINT newVegas:RightHandPinky2
									{
										OFFSET -2.538986 0.000000 0.000000
										CHANNELS 3 Xrotation Yrotation Zrotation
										JOINT newVegas:RightHandPinky3
										{
											OFFSET -2.593102 0.000000 0.000000
											CHANNELS 3 Xrotation Yrotation Zrotation
											End Site
											{
												OFFSET 0.150902 2.584198 0.152708
											}
										}
									}
								}
							}
							JOINT newVegas:Right_CapeC
							{
								OFFSET -15.715958 -8.608795 -6.935905
								CHANNELS 3 Xrotation Yrotation Zrotation
								JOINT newVegas:Right_CapeC1
								{
									OFFSET 0.000000 -8.688499 0.000000
									CHANNELS 3 Xrotation Yrotation Zrotation
									End Site
									{
										OFFSET 0.000000 8.688499 0.000000
									}
								}
							}
							JOINT newVegas:Right_Sleeve
							{
								OFFSET -0.267448 -0.649994 0.577675
								CHANNELS 3 Xrotation Yrotation Zrotation
								End Site
								{
									OFFSET 0.000000 15.991302 0.000000
								}
							}
						}
						JOINT newVegas:Right_CapeA
						{
							OFFSET -5.115540 -8.608795 -10.395824
							CHANNELS 3 Xrotation Yrotation Zrotation
							JOINT newVegas:Right_CapeA1
							{
								OFFSET 0.000000 -8.688499 0.000000
								CHANNELS 3 Xrotation Yrotation Zrotation
								End Site
								{
									OFFSET 0.000000 8.688499 0.000000
								}
							}
						}
						JOINT newVegas:Right_CapeB
						{
							OFFSET -26.118187 -8.608795 -7.079266
							CHANNELS 3 Xrotation Yrotation Zrotation
							JOINT newVegas:Right_CapeB1
							{
								OFFSET 0.000000 -8.688499 0.000000
								CHANNELS 3 Xrotation Yrotation Zrotation
								End Site
								{
									OFFSET 0.000000 8.688499 0.000000
								}
							}
						}
					}
				}
				JOINT newVegas:Left_Collar
				{
					OFFSET 18.625099 8.655502 8.828100
					CHANNELS 3 Xrotation Yrotation Zrotation
					JOINT newVegas:Left_Collar1
					{
						OFFSET 14.783401 10.540405 -1.259500
						CHANNELS 3 Xrotation Yrotation Zrotation
						End Site
						{
							OFFSET 0.000000 18.199875 0.000000
						}
					}
				}
				JOINT newVegas:Collar_Back
				{
					OFFSET 0.000000 15.630707 -20.132601
					CHANNELS 3 Xrotation Yrotation Zrotation
					End Site
					{
						OFFSET 0.000000 22.523010 0.000000
					}
				}
				JOINT newVegas:Left_Peck
				{
					OFFSET 17.239599 -5.132599 25.482599
					CHANNELS 3 Xrotation Yrotation Zrotation
					End Site
					{
						OFFSET 0.000000 22.523010 0.000000
					}
				}
				JOINT newVegas:Right_Peck
				{
					OFFSET -17.239599 -5.132202 25.482599
					CHANNELS 3 Xrotation Yrotation Zrotation
					End Site
					{
						OFFSET 0.000000 22.523010 0.000000
					}
				}
				JOINT newVegas:Right_Collar
				{
					OFFSET -18.625099 8.655792 8.828100
					CHANNELS 3 Xrotation Yrotation Zrotation
					JOINT newVegas:Right_Collar1
					{
						OFFSET -14.783401 10.539993 -1.259500
						CHANNELS 3 Xrotation Yrotation Zrotation
						End Site
						{
							OFFSET 0.000000 18.199631 0.000000
						}
					}
				}
			}
		}
		JOINT newVegas:Belly
		{
			OFFSET 0.000000 -6.540398 9.014299
			CHANNELS 3 Xrotation Yrotation Zrotation
			End Site
			{
				OFFSET 0.000000 11.566666 0.000000
			}
		}
	}
	JOINT newVegas:ElvisFacialAnim_Joint
	{
		OFFSET 1.000000 -95.330101 -8.825800
		CHANNELS 3 Xrotation Yrotation Zrotation
		End Site
		{
			OFFSET 0.000000 35.315800 0.000000
		}
	}
}
MOTION
Frames: 4
Frame Time: 0.033333
1.612427 76.831078 -27.109339 16.037009 8.253978 -4.854720 0.000001 0.000000 -0.000000 -81.325355 -2.573184 0.789491 52.867426 1.769068 2.129988 12.344540 -7.729947 -1.982481 -0.000000 0.000000 -0.000000 0.000001 0.000001 -0.000000 -76.641327 -3.665278 -9.810587 66.271044 -7.072573 6.131965 -5.202108 -18.108370 -1.622542 -0.000000 -0.000000 -0.000000 -0.000000 0.000001 -0.000000 17.849163 -4.441033 -6.986624 27.202460 8.960576 -2.398548 10.277598 2.948741 1.192595 -0.603044 -0.111955 -0.779228 -0.603014 -0.111953 -0.779236 -0.000002 0.000000 -0.000001 -0.603009 -0.111955 -0.779231 -0.603081 -0.111965 -0.779224 -0.000000 -0.000001 0.000002 -0.000002 0.000000 -0.000001 4.430804 -3.160454 -9.732964 -42.536028 -54.231419 -56.223160 0.000011 -39.786825 0.000010 38.554113 -29.053743 18.814950 -13.262259 -4.472130 32.076426 8.210704 26.618924 -16.381237 0.000003 0.000000 -0.000004 -0.468835 -0.043712 -10.466395 0.302355 1.859486 -18.470148 0.000001 0.000003 0.000001 -0.096671 1.761326 -8.792436 0.241127 1.664966 -16.478210 -0.000001 -0.000001 0.000001 -0.099316 1.303672 -6.744069 0.187676 1.472338 -14.525874 -0.000000 0.000001 -0.000001 0.106646 3.068204 -6.400891 0.055623 0.806405 -7.894684 0.000002 -0.000003 -0.000004 0.000003 0.000001 0.000001 0.000003 0.000001 0.000001 0.000002 0.000001 0.000002 0.000001 -0.000001 -0.000000 0.000001 -0.000001 -0.000000 0.000001 -0.000001 -0.000000 -0.000001 -0.000001 -0.000000 3.469091 13.873020 6.143330 -5.752657 32.690467 17.182159 -0.000029 65.825217 0.000026 23.634070 15.023435 -32.250825 -3.508733 -0.374346 -15.148770 8.873842 -23.602736 2.333956 0.000001 -0.000000 -0.000000 -1.336972 -0.706294 27.266052 0.550183 -2.197762 28.105860 -0.000001 0.000002 -0.000002 -0.103116 -3.336668 31.265054 0.555892 -2.208381 28.253882 -0.000005 0.000001 -0.000002 0.020856 -3.503574 30.442536 0.550721 -2.198781 28.120160 -0.000001 -0.000001 0.000001 0.467504 -4.265860 30.622378 0.255063 -1.521575 19.030787 0.000000 -0.000002 0.000003 0.000000 0.000001 -0.000000 0.000000 -0.000001 -0.000001 0.000000 0.000000 -0.000000 -0.000000 0.000000 -0.000001 -0.000000 0.000001 -0.000000 -0.000000 0.000000 -0.000001 -0.000000 0.000001 -0.000000 0.000000 0.000000 -0.000001 0.000000 0.000000 -0.000001 0.000000 0.000000 -0.000001 0.000000 0.000000 -0.000001 0.000000 0.000000 -0.000001 0.000000 0.000000 -0.000001 0.000000 0.000000 -0.000001 0.000003 0.000001 -0.000000 0.000001 0.000000 -0.000000 
1.463490 74.719078 -28.705694 15.367738 6.766063 -4.002283 0.000000 0.000000 -0.000000 -84.731536 -1.263388 2.248150 56.539882 1.267802 1.711268 12.745539 -7.487440 -1.295588 -0.000000 0.000000 -0.000000 0.000000 0.000001 0.000000 -80.927899 -2.169863 -8.956222 69.459889 -6.934755 5.999875 -3.613845 -18.029058 -1.944861 -0.000000 0.000000 -0.000000 0.000000 0.000000 -0.000000 19.731570 -4.726740 -6.640225 26.938290 8.923168 -2.475917 10.320640 2.935642 1.158899 -0.818004 -0.112745 -0.805793 -0.818003 -0.112746 -0.805797 -0.000002 0.000000 0.000001 -0.817987 -0.112739 -0.805791 -0.817975 -0.112747 -0.805789 -0.000001 0.000000 -0.000001 -0.000002 0.000000 0.000000 4.604635 -2.539510 -9.721550 -46.373009 -54.161354 -59.392450 0.000011 -42.844670 -0.000010 40.276423 -29.979876 21.285501 -20.671574 -5.050807 28.720546 11.239357 27.187633 -17.830164 0.000001 -0.000001 -0.000001 -0.591308 1.497921 -19.489723 0.703297 2.784970 -28.339560 0.000001 -0.000001 0.000000 -0.286810 2.063834 -16.871967 0.530180 2.437241 -24.541401 0.000000 0.000001 0.000000 -0.493586 0.439843 -12.468288 0.393462 2.112603 -21.098454 -0.000001 -0.000001 0.000001 0.025591 2.578248 -9.009479 0.089486 1.021186 -10.017090 -0.000001 0.000000 -0.000003 -0.000000 -0.000002 0.000000 -0.000000 -0.000002 0.000000 -0.000001 -0.000001 0.000001 -0.000000 0.000001 -0.000000 -0.000000 0.000000 -0.000000 -0.000000 0.000001 -0.000000 -0.000002 0.000000 -0.000001 3.636025 13.227504 5.481803 -6.225369 33.502023 17.499537 0.000047 66.713989 -0.000032 28.955457 14.359571 -32.577981 -4.955991 -0.283456 -24.511141 8.483228 -21.312883 14.952881 0.000002 -0.000003 0.000001 -1.631737 -1.742304 38.124682 0.738868 -2.519126 32.688367 -0.000002 0.000001 -0.000001 -0.057691 -3.822765 39.423104 0.822032 -2.644131 34.534915 -0.000003 -0.000002 -0.000001 -0.164198 -3.460446 35.226233 0.746669 -2.531223 32.865460 -0.000000 -0.000001 0.000002 0.129109 -3.721651 31.323261 0.255389 -1.522533 19.043285 0.000003 -0.000000 -0.000002 0.000000 -0.000001 0.000001 0.000000 -0.000001 0.000000 0.000000 -0.000001 0.000001 0.000000 0.000003 0.000000 0.000000 0.000003 0.000000 0.000000 0.000003 0.000000 0.000000 0.000003 0.000000 0.000001 -0.000000 0.000000 0.000001 -0.000000 0.000000 0.000001 -0.000000 0.000000 0.000001 -0.000000 0.000000 0.000001 -0.000000 0.000000 0.000001 -0.000000 0.000000 0.000001 -0.000000 0.000000 -0.000001 0.000000 -0.000002 0.000000 0.000000 -0.000000 
1.332356 72.647598 -30.220798 13.927468 5.557629 -3.215188 0.000001 -0.000000 0.000000 -87.353926 -0.115576 3.748873 60.026168 0.618211 1.291165 13.317377 -7.256040 -0.510180 0.000000 -0.000000 -0.000000 0.000002 0.000001 -0.000000 -84.294226 -1.216129 -8.150753 72.440768 -6.763236 5.675666 -2.018861 -17.932814 -2.271568 0.000000 0.000000 -0.000000 -0.000000 -0.000001 -0.000001 22.154823 -5.210086 -6.181367 26.476737 8.813849 -2.566026 10.262381 2.880534 1.088588 -1.002817 -0.101592 -0.826340 -1.002823 -0.101595 -0.826333 -0.000000 -0.000000 0.000000 -1.002816 -0.101585 -0.826337 -1.002770 -0.101604 -0.826336 0.000000 -0.000001 0.000000 -0.000000 -0.000000 -0.000001 4.665091 -2.322481 -9.717606 -42.251277 -51.495176 -55.090472 -0.000005 -51.466165 0.000002 39.755089 -28.325406 22.137690 -26.759783 -4.222102 23.944966 14.321904 27.404345 -19.245485 -0.000003 -0.000002 -0.000001 -0.365932 3.009397 -28.011647 1.221042 3.581272 -37.643003 -0.000000 -0.000001 -0.000000 -0.492199 2.411332 -24.565296 0.903460 3.127345 -32.219597 0.000000 0.000005 -0.000001 -1.077311 -0.277352 -18.009165 0.660614 2.704458 -27.448616 -0.000000 0.000001 -0.000000 -0.133433 1.989876 -11.631547 0.131998 1.237773 -12.171863 -0.000000 -0.000003 -0.000002 -0.000001 0.000002 -0.000001 -0.000001 0.000002 -0.000001 -0.000002 0.000002 -0.000001 0.000001 0.000001 0.000000 0.000001 0.000000 -0.000001 0.000001 0.000001 0.000000 -0.000001 -0.000000 -0.000000 3.746003 12.766191 5.009861 -6.495071 33.246851 17.476979 0.000006 69.461364 0.000012 32.970512 14.118051 -33.938387 -5.690380 0.372221 -30.166326 8.485876 -20.421045 20.742438 0.000000 -0.000003 0.000004 -1.708415 -2.344561 44.041118 0.759909 -2.551585 33.163895 -0.000000 -0.000003 -0.000002 -0.030971 -4.024981 42.845384 0.904068 -2.759383 36.274554 -0.000002 -0.000001 -0.000001 -0.266312 -3.425732 37.036451 0.810193 -2.626846 34.277431 -0.000000 -0.000001 0.000001 -0.051043 -3.386592 30.551375 0.227641 -1.439646 17.969581 -0.000001 0.000003 -0.000001 0.000000 -0.000000 0.000000 0.000000 -0.000002 0.000000 0.000000 -0.000000 0.000001 0.000000 0.000001 -0.000000 0.000000 0.000002 -0.000000 0.000000 0.000001 -0.000000 0.000000 0.000002 0.000000 -0.000000 -0.000000 0.000001 -0.000000 -0.000000 0.000001 -0.000000 -0.000000 0.000001 -0.000000 -0.000000 0.000001 -0.000000 -0.000000 0.000001 -0.000000 -0.000000 0.000001 -0.000000 -0.000000 0.000001 0.000001 0.000000 -0.000000 0.000001 -0.000000 0.000000 
1.213831 70.523422 -31.694983 11.930338 4.469949 -2.462820 -0.000001 -0.000000 -0.000000 -89.509943 0.821745 5.265542 63.437035 -0.018234 0.874694 14.049407 -7.024432 0.300771 0.000000 -0.000000 -0.000000 0.000001 -0.000000 0.000001 -87.154956 -0.605435 -7.345387 75.332561 -6.596831 5.194515 -0.322396 -17.820589 -2.621466 0.000000 0.000001 -0.000000 -0.000000 0.000002 -0.000000 25.252470 -5.851892 -5.593638 25.725687 8.641694 -2.640575 10.023419 2.786408 1.004839 -1.150003 -0.081888 -0.844113 -1.150008 -0.081890 -0.844111 -0.000002 0.000000 0.000000 -1.150054 -0.081888 -0.844120 -1.149912 -0.081891 -0.844113 0.000002 -0.000000 -0.000000 -0.000002 0.000000 -0.000000 4.949610 -0.358508 -9.637358 -38.313656 -49.009356 -51.557266 0.000021 -59.801544 0.000026 37.877265 -26.860994 22.574129 -28.772783 -3.844792 22.407102 16.239316 26.527760 -19.499791 -0.000000 0.000000 -0.000004 -0.029850 3.818604 -30.850366 1.414878 3.818945 -40.646268 0.000001 0.000006 0.000001 -0.549209 2.607021 -27.480747 1.065259 3.370079 -35.074237 -0.000000 0.000003 0.000001 -1.337618 -0.380775 -20.523392 0.798546 2.954571 -30.241981 -0.000000 0.000001 0.000000 -0.343722 1.291050 -13.255235 0.164650 1.380569 -13.601963 0.000000 -0.000005 0.000002 -0.000000 0.000000 -0.000000 -0.000000 0.000000 -0.000000 -0.000001 0.000000 0.000000 -0.000002 0.000001 0.000000 -0.000002 0.000001 0.000001 -0.000002 0.000001 0.000000 -0.000003 0.000001 0.000000 3.961882 12.120403 4.253483 -8.524466 30.796005 19.418622 -0.000002 77.679543 0.000008 36.027977 10.251410 -30.976499 -5.548806 0.382243 -29.967407 8.811846 -20.323807 20.683228 0.000000 -0.000003 0.000001 -1.667312 -2.401929 44.173822 0.764066 -2.557936 33.257451 -0.000002 0.000001 -0.000001 -0.046031 -3.996797 42.608380 0.883482 -2.731156 35.844799 -0.000001 -0.000003 -0.000003 -0.271567 -3.397088 36.679239 0.785230 -2.589834 33.728051 -0.000001 0.000001 -0.000001 -0.020730 -3.411847 30.010379 0.218026 -1.409681 17.583188 0.000002 0.000001 0.000003 0.000001 0.000006 0.000000 0.000001 0.000002 0.000000 0.000001 0.000005 0.000001 -0.000001 -0.000002 -0.000000 -0.000001 -0.000001 -0.000001 -0.000001 -0.000002 -0.000000 -0.000001 -0.000001 -0.000000 0.000002 -0.000000 0.000000 0.000002 -0.000000 0.000000 0.000002 -0.000000 0.000000 0.000002 -0.000000 0.000000 0.000002 -0.000000 0.000000 0.000002 -0.000000 0.000000 0.000002 -0.000000 0.000000 -0.000000 0.000000 0.000000 -0.000001 -0.000000 -0.000000 
